<svg width="218" height="97" viewBox="0 0 218 97" fill="none" xmlns="http://www.w3.org/2000/svg">
<path d="M1.64773 19.8182H15.4261L28.6932 44.875H29.2614L42.5284 19.8182H56.3068L35.0852 57.4318V78H22.8693V57.4318L1.64773 19.8182ZM92.6162 19.8182V78H80.5139V19.8182H92.6162ZM118.39 78.7102C115.076 78.7102 112.074 77.858 109.385 76.1534C106.714 74.4299 104.593 71.9015 103.021 68.5682C101.468 65.2159 100.691 61.1061 100.691 56.2386C100.691 51.2386 101.496 47.0814 103.106 43.767C104.716 40.4337 106.856 37.9432 109.527 36.2955C112.216 34.6288 115.161 33.7955 118.362 33.7955C120.805 33.7955 122.841 34.2121 124.47 35.0455C126.118 35.8598 127.443 36.8826 128.447 38.1136C129.47 39.3258 130.246 40.5189 130.777 41.6932H131.146V19.8182H143.22V78H131.288V71.0114H130.777C130.209 72.2235 129.404 73.4261 128.362 74.6193C127.339 75.7936 126.004 76.7689 124.356 77.5455C122.727 78.322 120.739 78.7102 118.39 78.7102ZM122.226 69.0795C124.176 69.0795 125.824 68.5492 127.169 67.4886C128.532 66.4091 129.574 64.9034 130.294 62.9716C131.032 61.0398 131.402 58.7765 131.402 56.1818C131.402 53.5871 131.042 51.3333 130.322 49.4205C129.602 47.5076 128.561 46.0303 127.197 44.9886C125.834 43.947 124.176 43.4261 122.226 43.4261C120.237 43.4261 118.561 43.9659 117.197 45.0455C115.834 46.125 114.801 47.6212 114.101 49.5341C113.4 51.447 113.049 53.6629 113.049 56.1818C113.049 58.7197 113.4 60.964 114.101 62.9148C114.82 64.8466 115.852 66.3617 117.197 67.4602C118.561 68.5398 120.237 69.0795 122.226 69.0795ZM165.272 19.8182V78H153.17V19.8182H165.272ZM182.439 94.3636C180.905 94.3636 179.465 94.2405 178.12 93.9943C176.795 93.767 175.696 93.4735 174.825 93.1136L177.552 84.0795C178.973 84.5152 180.251 84.7519 181.387 84.7898C182.543 84.8277 183.537 84.5625 184.37 83.9943C185.223 83.4261 185.914 82.4602 186.444 81.0966L187.155 79.25L171.501 34.3636H184.228L193.262 66.4091H193.717L202.836 34.3636H215.649L198.689 82.7159C197.874 85.0644 196.766 87.1098 195.365 88.8523C193.982 90.6136 192.23 91.9678 190.109 92.9148C187.988 93.8807 185.431 94.3636 182.439 94.3636Z" fill="#2B75B6"/>
<path d="M63 20L59 34H71L72.5 27.5L74.5 20H63Z" fill="#FC0001"/>
<rect x="59" y="35" width="12" height="43" fill="#2B75B6"/>
</svg>
